<svg xmlns="http://www.w3.org/2000/svg" width="296.34668" height="500" viewBox="427 50 340.34668 500" xmlns:xlink="http://www.w3.org/1999/xlink">
    <rect x="560.03243" y="11.5504" width="2" height="440.03125" fill="#3f3d56" />
    <rect x="826.36755" y="387.49402" width="56" height="56" transform="translate(1532.15053 675.31277) rotate(-180)" fill="#ffb8b8" />
    <polygon points="740.707 566.513 729.673 566.512 724.425 523.955 740.709 523.956 740.707 566.513" fill="#ffb8b8" />
    <path d="M884.98767,738.474a4.67909,4.67909,0,0,0,4.66992,4.66h20.75977l.41015-.85,3.16992-6.54,1.24024,6.54.15967.85h7.83008l-.06983-.85-2.12988-25.54-3.74024-.22-11.81982-.71-1.88037-.11v7.47l-16.57959,11.45A4.67074,4.67074,0,0,0,884.98767,738.474Z" transform="translate(-176.58458 -155.67528)" fill="#2f2e41" />
    <polygon points="676.18 559.507 665.576 562.557 648.768 523.109 664.418 518.608 676.18 559.507" fill="#ffb8b8" />
    <path d="M826.21765,739.764a4.69023,4.69023,0,0,0,5.77978,3.19l2.33008-.67005,12.89014-3.71,4.73975-1.36005,1.39013-8.09,3.39014,6.72,7.52-2.17-9.41016-24.75-3.6499.82-1.31006.29-10.25,2.30005-1.83984.41,2.06982,7.18-12.77,15.59A4.68188,4.68188,0,0,0,826.21765,739.764Z" transform="translate(-176.58458 -155.67528)" fill="#2f2e41" />
    <path d="M788.37829,612.43274a16.87388,16.87388,0,0,1,1.57032-15.08752L815.36755,465.494l10-50h60s37.5,41.5,29.5,94.5l2.23926,74.64014A27.44789,27.44789,0,0,1,918.61023,600.82l-.89112,4.22223.34375.63593a21.33412,21.33412,0,0,1,.26856,19.77215l-.18022,59.63805-18-1L876.36755,610.494l-17.5-88.5-29.5,68.5-1,16,.48535,14.10334,14.00247,56.7674-19.5,7.5Z" transform="translate(-176.58458 -155.67528)" fill="#2f2e41" />
    <path d="M744.86176,248.37864a10.0238,10.0238,0,0,1-.97137,1.513l50.75213,37.26748L852.3574,305.888a15.08,15.08,0,0,1-7.26267,29.19654l-.00006,0a118.97111,118.97111,0,0,1-34.90078-11.9334l-36.12277-19.04149-43.701-52.04643a9.9971,9.9971,0,1,1,14.49166-3.6845Z" transform="translate(-176.58458 -155.67528)" fill="#ffb8b8" />
    <path d="M787.15868,311.25954l11.10184-24.39578,55.38854,11.25479a23.71606,23.71606,0,1,1-21.76467,42.14387Z" transform="translate(-176.58458 -155.67528)" fill="#2f2e41" />
    <circle cx="851.3387" cy="258.61159" r="29.72869" transform="translate(-196.30247 284.36932) rotate(-28.66318)" fill="#ffb8b8" />
    <path d="M848.36755,296.494l11.27166-14.48875,16.07878-.69719,1.60478,13.62689,7.967,3.67372a213.66873,213.66873,0,0,1,3.59909,92.56989l0,0h0a8.24248,8.24248,0,0,0-2.34458,8.00651l.51649,2.05911-.04779.07541a12.06184,12.06184,0,0,0-1.60133,9.00483h0l14.56475,25.88023c-30.92945,12.606-53.6034-10.90246-74.60883-41.71069l-13-45Z" transform="translate(-176.58458 -155.67528)" fill="#bb5454" />
    <path d="M846.36755,222.494h19.2041c12.58985,0,22.7959,11.48194,22.7959,25.64563,9.5,9.53894,6.64893,21.4892-.88867,34.35437a149.22552,149.22552,0,0,0-39.541,10.57575l-1.79248-7.65448-3.53564,10.08081q-4.7168,2.28534-9.35352,4.99792c3.60791-16.95111,5.09278-33.86285,2.61573-47h-6.5044v-7.1181l-2.208,7.1181h-11.792V253.494A30.9998,30.9998,0,0,1,846.36755,222.494Z" transform="translate(-176.58458 -155.67528)" fill="#2f2e41" />
    <polygon points="637.897 224.129 634.861 193.769 675.162 134.111 676.819 135.23 636.923 194.29 639.887 223.93 637.897 224.129" fill="#2f2e41" />
    <circle cx="638.8918" cy="224.02945" r="3" fill="#2f2e41" />
    <circle cx="695.3918" cy="64.52945" r="14" fill="#2f2e41" />
    <path d="M841.64684,452.59855a10.02355,10.02355,0,0,1,1.79.16882l9.82441-62.19426L843.419,330.699a15.08,15.08,0,0,1,29.27393-6.94415v.00006a118.97082,118.97082,0,0,1,5.41161,36.48541l-.34326,40.83277-26.19111,62.71073a9.9971,9.9971,0,1,1-9.92334-11.1853Z" transform="translate(-176.58458 -155.67528)" fill="#ffb8b8" />
    <path d="M878.10876,386.16388,851.3387,387.494l-15.41556-54.37758a23.71607,23.71607,0,1,1,47.43213,0Z" transform="translate(-176.58458 -155.67528)" fill="#2f2e41" />
</svg>