<svg xmlns="http://www.w3.org/2000/svg" width="300.34668" height="500" viewBox="0 -23 296.34668 500" xmlns:xlink="http://www.w3.org/1999/xlink">
    <rect x="175.03243" y="-29.2" width="2" height="384.03125" fill="#3f3d56" />
    <polygon points="78.77755 131.21286 79.62282 166.99568 130.33862 165.5991 120.08981 125.99453 78.77755 131.21286" fill="#ffb6b6" />
    <path d="M177.99082,83.25486l-7.71645,18.648-11.26783-2.92179,8.85982-19.42554c-.19007-.62377-.29401-1.28514-.29401-1.97108,0-3.73073,3.02439-6.75511,6.75512-6.7551s6.75511,3.02439,6.7551,6.75512c0,2.37926-1.2329,4.46697-3.09176,5.67039Z" fill="#ffb6b6" />
    <path d="M58.14287,214.81532l-.93299-20.15989,11.44212-2.13977,.22803,21.34938c.43697,.48401,.81193,1.03865,1.10322,1.65967,1.58429,3.37763,.1305,7.40009-3.24713,8.98439s-7.40009,.1305-8.98439-3.24713c-1.01038-2.15407-.78074-4.56775,.39113-6.44665Z" fill="#ffb6b6" />
    <g>
        <polygon points="139.60595 452.07903 149.35459 452.28041 154.7886 413.94055 140.40211 413.64249 139.60595 452.07903" fill="#ffb6b6" />
        <path d="M170.37042,468.48548c-.05212,2.40598-2.04176,4.31577-4.44784,4.26934l-19.38087-.40299-3.19169-6.97452-1.4472,6.87447-7.31298-.14675,2.56444-24.59432,2.54855-.09509,10.39582-.41283,3.35375-.12661-.14453,6.9756,15.25718,11.01081c1.1602,.83788,1.83503,2.19203,1.80536,3.6229Z" fill="#2f2e41" />
    </g>
    <g>
        <polygon points="74.00411 452.07903 83.75275 452.28041 89.18676 413.94055 74.80027 413.64249 74.00411 452.07903" fill="#ffb6b6" />
        <path d="M104.76858,468.48548c-.05212,2.40598-2.04176,4.31577-4.44784,4.26934l-19.38087-.40299-3.19169-6.97452-1.4472,6.87447-7.31298-.14675,2.56444-24.59432,2.54855-.09509,10.39582-.41283,3.35375-.12661-.14453,6.9756,15.25718,11.01081c1.1602,.83788,1.83503,2.19203,1.80536,3.6229Z" fill="#2f2e41" />
    </g>
    <path d="M65.6701,79.77506c-16.58211,10.41227-12.50518,46.62503-11.72117,65.00916,.54278,12.72754-.10352,25.67555,1.66859,38.26245,.89655,6.36795,.85587,12.71172,.90143,19.18842,.02991,4.25196,.5792,3.16046,4.28195,2.79844,2.23283-.2183,7.12175,.69926,8.96505-.58503,2.49992-1.74177,1.8248-7.88438,2.32673-10.36179,.57714-2.8486,1.35971-5.54435,2.23197-8.32481,2.4674-7.86522,4.34007-16.52857,4.4529-24.81077,.16445-12.07188,.24262-24.26376-.28077-36.29738-.2757-6.33881-.7972-12.87954-1.9597-19.10759-.47923-2.56747-1.39312-4.94959-2.54936-7.29659-1.72899-3.50959-2.54039-3.48776-6.48035-3.94654" fill="#d0c8c9" />
    <path d="M129.78099,157.3045l-53.67423-1.49095,2.9819,4.47285-6.79146,6.70928s-24.51851,33.54639-17.06376,64.11089,3.25779,211.26011,3.25779,211.26011l43.70717-4.76341-4.84559-182.26874,35.78282,68.58374-10.40437,111.18489,37.24149-.10905,11.92761-120.02155-42.11936-157.66806Z" fill="#2f2e41" />
    <path d="M114.27862,67.95898c-3.4192-5.5686-2.13718-8.59544-9.31974-10.165-4.41182-.96409-9.57992-1.96363-14.13973-1.66869-4.84653,.31349-6.72989,3.31848-9.33399,7.22009-3.06613,4.59384-5.107,7.16654-9.66863,10.35937-19.29209,13.50315-6.6522,36.49885-11.9536,55.63134-1.13539,4.09757-2.84618,8.05493-3.92933,12.16081,3.65503-13.85511,4.40558,25.13834-2.03573,11.29371,2.34716,5.04487,8.9663,1.3419,11.76683-.71814,5.21582-3.8367,9.75977-5.34834,16.40965-6.26501,10.28645-1.41796,17.53772,5.74445,27.14098,7.40578,10.33245,1.78748,19.45407-1.57297,24.5239-11.17933,7.02753-13.31582,4.44098-26.87926-1.28745-40.27418-2.79048-6.52504-5.64268-12.68716-8.14438-19.34555-2.41009-6.41457-6.37361-9.54024-10.45141-14.87784" fill="#d0c8c9" />
    <path d="M110.89756,71.76266c-4.06501,3.25198-6.5862,10.63401-7.47377,15.50427-1.14731,6.29547-1.04379,13.34758-.35267,19.70048,.68688,6.31396,2.08583,12.43965,2.75536,18.77579,.66659,6.30834,6.06986,7.47922,7.55405,13.66989,1.51779,6.33082-.79275,15.4452,5.75864,15.75542,6.52017,.30875,11.66316-1.73578,17.32635-4.86654,13.54429-7.48763,28.45887-17.47156,35.0621-31.01672,1.76262-3.61565,7.85285-12.08266,9.69118-15.65498,1.7934-3.48501,.35458-9.69709-2.23643-12.67308-3.62842-4.16754-14.22392-5.05725-17.67887-9.28258-2.13325,3.06483,.09476,9.9695-.95073,13.74766-1.207,4.36179-17.83663,22.13395-23.11702,20.88109-3.23244-.76695-2.39159-13.87819-3.72738-16.40046-1.88029-3.55043-.85277-13.78809-2.9819-17.14594-2.53986-4.0056,.63787-5.23231-3.56336-7.82427-4.021-2.48077-11.34907-4.01999-16.06554-3.73353" fill="#d0c8c9" />
    <circle cx="103.33835" cy="28.54109" r="23.82011" fill="#ffb6b6" />
    <path d="M135.58848,21.9203c1.60815-11.54752-3.08043-15.08029-10.41603-16.12679C110.65865-1.74914,107.33432,.1469,102.73278,.9655l-1.6908-.36378c-5.18905-1.11645-10.34714-.64016-14.96218,1.10441-9.7342,3.67041-16.12891,12.97765-16.83683,23.35597-.48699,7.15455-4.7958,13.18178-8.94356,18.99205-3.46852,4.85075-.81566,11.65903,5.00738,12.91189l15.2465,3.28036c1.31973-1.66811,2.3744-3.41616,3.57015-5.6066,.47165,1.95439,.52395,4.19228,.27789,6.43452,5.39584,2.68765,11.28651,3.79973,17.53483,3.77271,1.005-1.33932,1.9054-2.83082,1.78651-4.5111,.34692,1.68364,.77148,3.361,.84451,5.07717,3.93042-2.53098,7.17922-1.78742,9.77318,2.10275,6.55176-5.43011,7.06491-17.87219-.72299-20.98886-6.58859-2.63672,3.80443-21.09494,10.89105-21.47131,.04562-.00242,1.93292,7.13416,2,7,1-2,.54262-3.09632,1.73831-5.28676,.39274,1.64767,.49904,3.49299,.36939,5.37145,1.68828-.36877,3.39807-.90835,5.12365-1.62752,2.00132-2.71803,2.77506-5.56558,1.84873-8.59255Z" fill="#2f2e41" />
</svg>